    <!-- <svg id="svg_id" width="100%" height="100%"  viewBox="0 0 960 560" enable-background="new 0 0 960 560" preserveAspectRatio="xMidYMid slice"> -->
            <svg version="1.1" id="svg_id" xmlns="http://www.w3.org/2000/svg" xmlns:xlink="http://www.w3.org/1999/xlink" x="0px" y="0px"
    viewBox="0 0 960 560" style="enable-background:new 0 0 960 560;" xml:space="preserve">

	<path class="curve" fill="#66CCFF"  stroke-width="3"  d="M960,237.49c0,0-4.91,2.43-14.11,6.97c-4.6,2.27-10.28,5.08-16.95,8.38
	c-6.76,3.13-14.58,6.59-23.31,10.54c-2.18,0.98-4.43,1.99-6.73,3.03c-1.15,0.52-2.31,1.04-3.49,1.57
	c-1.2,0.49-2.41,0.99-3.64,1.49c-4.9,2-10.03,4.09-15.38,6.27c-2.67,1.09-5.4,2.2-8.18,3.34c-1.39,0.57-2.79,1.14-4.21,1.72
	c-0.71,0.29-1.43,0.58-2.15,0.87c-0.73,0.27-1.45,0.53-2.19,0.8c-5.85,2.15-11.92,4.37-18.19,6.67c-3.13,1.15-6.32,2.32-9.55,3.5
	c-0.81,0.3-1.62,0.59-2.43,0.89l-1.24,0.45l-1.24,0.41c-1.66,0.54-3.33,1.09-5.02,1.64c-6.74,2.2-13.68,4.46-20.79,6.78
	c-7.09,2.39-14.5,4.56-22.04,6.74c-7.56,2.17-15.33,4.29-23.3,6.31c-15.95,4.02-32.73,7.63-50.33,10.08
	c-17.58,2.44-36,3.71-54.88,2.75c-9.45-0.49-19-1.54-28.55-3.31c-9.54-1.76-19.1-4.3-28.49-7.51
	c-18.85-6.4-36.95-15.67-55.31-24.75c-4.6-2.28-9.22-4.56-13.86-6.85c-4.63-2.33-9.3-4.52-14.05-6.65
	c-4.74-2.13-9.54-4.17-14.4-6.06c-2.43-0.95-4.88-1.86-7.35-2.73c-2.48-0.86-4.98-1.77-7.44-2.56c-2.47-0.78-4.96-1.44-7.47-1.74
	c-0.62-0.07-1.27-0.12-1.86-0.15c-0.68-0.02-1.28-0.04-1.92-0.02c-1.26,0.03-2.52,0.14-3.74,0.37c-2.44,0.46-4.76,1.35-6.61,2.9
	c-0.84,0.72-1.64,1.67-1.98,2.58c-0.36,0.89-0.18,1.76,0.3,2.14c0.26,0.21,0.68,0.38,1.19,0.47c0.53,0.09,1.06,0.11,1.73,0.09
	l3.99-0.1c2.66-0.09,5.31-0.24,7.97-0.45c5.28-0.42,10.6-1.15,15.84-2.14c5.25-1,10.45-2.27,15.58-3.83
	c2.57-0.78,5.11-1.62,7.64-2.54c2.49-0.91,4.99-1.92,7.41-3.04c4.85-2.23,9.49-4.91,13.63-8.22c4.09-3.29,7.81-7.26,10.43-11.77
	c1.31-2.26,2.35-4.66,2.97-7.16c0.62-2.49,0.8-5.08,0.49-7.61l-0.13-0.95c-0.04-0.21-0.02-0.24-0.07-0.42l-0.11-0.5l-0.23-1
	c-0.09-0.31-0.19-0.59-0.28-0.89c-0.34-1.17-0.9-2.36-1.48-3.48c-1.22-2.24-2.89-4.23-4.82-5.92c-1.93-1.7-4.19-3.04-6.56-4.07
	c-1.17-0.52-2.47-0.93-3.63-1.27c-0.66-0.15-1.35-0.34-1.98-0.46c-0.63-0.1-1.24-0.25-1.9-0.31c-5.18-0.7-10.51,0.03-15.47,1.79
	c-4.97,1.77-9.56,4.59-13.83,7.84c-4.27,3.26-8.21,6.99-12.04,10.84c-7.63,7.79-15.22,15.69-22.81,23.52
	c-15.18,15.67-30.3,31.28-45.3,46.77c-7.5,7.74-14.97,15.46-22.4,23.13c-1.86,1.92-3.71,3.84-5.57,5.75l-2.75,2.85
	c-0.44,0.47-0.92,1.05-1.64,1.57c-0.38,0.26-0.75,0.49-1.32,0.66c-0.09,0.03-0.49,0.12-0.7,0.14c-0.25,0.03-0.5,0.03-0.74,0.01
	c-0.98-0.07-1.88-0.46-2.61-1.1c-0.74-0.63-1.23-1.63-1.36-2.51c-0.15-0.86-0.06-1.74,0.02-2.34l0.23-1.97
	c0.31-2.63,0.54-5.27,0.82-7.9c2.12-21.03,4.21-41.8,6.27-62.23c0.52-5.11,1.03-10.19,1.54-15.25c0.24-2.53,0.49-5.05,0.73-7.57
	c0.11-1.25,0.2-2.48,0.22-3.69c0.01-0.63,0-1.17-0.03-1.82c-0.04-0.58-0.08-1.17-0.18-1.75c-0.33-2.32-1.19-4.5-2.76-5.92
	c-0.4-0.34-0.82-0.67-1.29-0.91c-0.28-0.16-0.56-0.31-0.77-0.38c-0.22-0.1-0.45-0.19-0.73-0.26c-1.03-0.32-2.15-0.44-3.28-0.4
	c-2.28,0.08-4.6,0.74-6.88,1.55c-2.3,0.83-4.63,1.72-6.92,2.6c-9.2,3.54-18.23,7.29-27.11,11.03
	c-8.87,3.82-17.63,7.59-26.28,11.31c-8.64,3.72-17.17,7.4-25.57,11.02c-4.2,1.81-8.37,3.61-12.5,5.39
	c-4.19,1.78-8.32,3.38-12.43,5.05c-8.23,3.3-16.26,6.59-24.25,9.73c-8.01,3.02-15.92,5.83-23.73,8.41
	c-15.62,5.15-30.85,9.4-45.55,12.39c-14.7,3.01-28.84,4.89-42.19,5.77c-26.7,1.8-50.14-0.56-68.83-4.85
	c-18.74-4.27-32.7-10.28-41.85-14.89c-4.59-2.31-8-4.27-10.29-5.62C1.16,275.17,0,274.44,0,274.44s1.16,0.72,3.45,2.06
	c2.3,1.33,5.72,3.27,10.33,5.53c9.18,4.53,23.18,10.41,41.9,14.51c18.68,4.13,42.06,6.28,68.65,4.26
	c13.28-0.99,27.35-2.98,41.96-6.1c14.62-3.1,29.77-7.36,45.32-12.58c7.77-2.61,15.65-5.45,23.62-8.5
	c7.91-3.14,15.97-6.5,24.17-9.83c4.08-1.69,8.27-3.33,12.36-5.09c4.13-1.8,8.28-3.62,12.47-5.45c8.38-3.66,16.89-7.37,25.51-11.14
	c8.63-3.76,17.37-7.58,26.22-11.44c8.9-3.8,17.91-7.59,27.14-11.19c2.32-0.9,4.61-1.79,6.98-2.66c2.38-0.85,4.91-1.61,7.63-1.73
	c2.72-0.13,5.65,0.63,7.86,2.59c2.19,1.98,3.21,4.8,3.59,7.44c0.41,2.71,0.24,5.3,0.02,7.86c-0.24,2.53-0.48,5.06-0.72,7.59
	c-0.51,5.07-1.01,10.16-1.52,15.27c-2.03,20.43-4.09,41.21-6.17,62.24c-0.27,2.63-0.5,5.27-0.8,7.89l-0.22,1.98
	c-0.09,0.71-0.11,1.17-0.04,1.62c0.08,0.43,0.22,0.69,0.49,0.93c0.27,0.24,0.65,0.4,1,0.42c0.09,0.01,0.17,0,0.26,0
	c0.12-0.02,0.05,0,0.27-0.06c0.07-0.02,0.29-0.12,0.45-0.25c0.36-0.26,0.76-0.69,1.22-1.2l2.79-2.91c1.85-1.92,3.7-3.84,5.56-5.76
	c7.42-7.69,14.88-15.41,22.37-23.17c14.98-15.51,30.07-31.15,45.23-46.84c7.59-7.85,15.13-15.73,22.8-23.58
	c3.87-3.9,7.9-7.73,12.33-11.13c4.43-3.37,9.26-6.39,14.63-8.3c5.35-1.89,11.17-2.69,16.86-1.91c0.71,0.07,1.44,0.23,2.15,0.36
	c0.71,0.14,1.34,0.31,2.02,0.47c1.46,0.42,2.77,0.85,4.11,1.44c2.64,1.15,5.15,2.64,7.32,4.56c2.18,1.91,4.07,4.18,5.47,6.74
	c0.67,1.31,1.28,2.6,1.71,4.06c0.11,0.36,0.23,0.73,0.32,1.07l0.22,1l0.11,0.5c0.04,0.15,0.08,0.46,0.1,0.59l0.15,1.08
	c0.34,2.89,0.14,5.85-0.57,8.65c-0.71,2.8-1.86,5.46-3.29,7.91c-1.43,2.46-3.14,4.72-5.02,6.81c-0.94,1.05-1.97,2.07-2.94,2.99
	c-1.05,0.98-2.1,1.87-3.19,2.76c-4.37,3.48-9.22,6.27-14.23,8.57c-2.51,1.15-5.05,2.17-7.65,3.12c-2.56,0.93-5.16,1.79-7.78,2.57
	c-5.23,1.57-10.53,2.87-15.88,3.87c-5.36,1.01-10.71,1.73-16.14,2.15c-2.7,0.21-5.4,0.36-8.09,0.45l-4.04,0.1
	c-0.66,0.02-1.47,0.01-2.26-0.13c-0.8-0.14-1.68-0.43-2.46-1.06c-1.66-1.37-1.75-3.69-1.11-5.22c0.63-1.59,1.64-2.71,2.81-3.73
	c2.26-1.89,5.08-2.95,7.84-3.46c1.39-0.25,2.79-0.37,4.18-0.4c0.7-0.02,1.42,0,2.06,0.02c0.73,0.04,1.4,0.09,2.1,0.18
	c2.76,0.34,5.41,1.04,7.97,1.86c2.57,0.82,5.02,1.73,7.52,2.6c2.5,0.88,4.97,1.81,7.43,2.77c4.91,1.92,9.75,3.99,14.52,6.14
	c4.76,2.15,9.5,4.38,14.11,6.71c4.64,2.3,9.25,4.59,13.85,6.88c9.21,4.55,18.3,9.17,27.41,13.4c9.12,4.23,18.28,8.15,27.57,11.36
	c9.29,3.22,18.67,5.77,28.12,7.56c9.43,1.79,18.89,2.88,28.23,3.41c18.73,1.05,37.02-0.13,54.52-2.47
	c17.51-2.35,34.26-5.87,50.18-9.8c7.96-1.97,15.72-4.06,23.28-6.19c7.57-2.14,14.91-4.27,22.03-6.59
	c7.14-2.26,14.09-4.47,20.85-6.61c1.69-0.54,3.37-1.07,5.03-1.6l1.25-0.4l1.21-0.43c0.82-0.29,1.63-0.58,2.44-0.87
	c3.24-1.16,6.43-2.3,9.58-3.42c6.28-2.24,12.37-4.42,18.24-6.52c0.73-0.26,1.46-0.52,2.19-0.78c0.71-0.28,1.42-0.56,2.13-0.84
	c1.42-0.57,2.83-1.13,4.23-1.68c2.79-1.11,5.53-2.2,8.21-3.27c5.37-2.14,10.51-4.19,15.43-6.15c1.23-0.49,2.44-0.97,3.64-1.45
	c1.18-0.52,2.35-1.04,3.51-1.54c2.31-1.02,4.56-2.01,6.75-2.97c8.76-3.88,16.62-7.28,23.39-10.35c6.7-3.24,12.4-6,17.02-8.24
	C955.07,239.88,960,237.49,960,237.49z"/>

</svg>